# xmcd CD database file
#
# Track frame offsets:
#	150
#	9152
#	18981
#	31742
#	43151
#	54351
#	68377
#	79035
#	87441
#	98326
#	112183
#	122936
#	134010
#	147654
#
# Disc length: 2118 seconds
#
# Revision: 1
# Processed by: cddbd v1.5.1PL2 Copyright (c) Steve Scherf et al.
# Submitted via: CDex 1.51
#
DISCID=b308440e
DTITLE=Roy Kay Trio - Rock-A-Way Lonesome Moon
DYEAR=2005
DGENRE=Country
TTITLE0=Cadillacin' Model A
TTITLE1=My Rockin' Heart
TTITLE2=You're For Me
TTITLE3=Cold Tears
TTITLE4=She Tracked Me Down
TTITLE5=I've Lost...
TTITLE6=Rockin' And Rollin'
TTITLE7=Everyday I'm Countin'
TTITLE8=Two Of A Kind
TTITLE9=Untie These Strings
TTITLE10=Lonesome Moon
TTITLE11=Lomg John's Flagpole Rock
TTITLE12=Shadows Fall
TTITLE13=Move On
EXTD=YEAR: 2005
EXTT0=
EXTT1=
EXTT2=
EXTT3=
EXTT4=
EXTT5=
EXTT6=
EXTT7=
EXTT8=
EXTT9=
EXTT10=
EXTT11=
EXTT12=
EXTT13=
PLAYORDER=
